<svg xmlns="http://www.w3.org/2000/svg" viewBox="0 0 145.79 80.36"><defs>
  <style> @import url('https://fonts.googleapis.com/css?family=Quicksand');
  .cls-1,.cls-5{fill:#32b44a;}.cls-2{font-size:18.02px;}.cls-2,.cls-8{fill:#fff;}.cls-2,.cls-5{font-family:'Quicksand', sans-serif !important;}.cls-3{letter-spacing:-0.02em;}.cls-4{font-size:27.03px;}.cls-5{font-size:5px;}.cls-6{letter-spacing:-0.01em;}.cls-7{fill:#231f20;}.cls-9{fill:#fcc27d;}.cls-10{fill:#f5c250;}.cls-11{fill:#a2a2a3;}</style></defs><title>Artboard 1</title><g id="Layer_1" data-name="Layer 1"><path class="cls-1" d="M111.79,15c-23.05,22-74-14.18-83,6S41,60.5,70.1,73.47s60,7.1,69-13.08S127.92-.39,111.79,15Z"/><text class="cls-2" transform="translate(70.56 43.26) scale(1.07 1)"><tspan class="cls-3">W</tspan><tspan x="15.86" y="0">OLIN</tspan><tspan class="cls-4"><tspan x="0" y="24.28">WEB</tspan></tspan></text><text class="cls-5" transform="translate(132.18 15.12) scale(1.07 1)"><tspan class="cls-6">T</tspan><tspan x="2.75" y="0">M</tspan></text></g><g id="Layer_2" data-name="Layer 2"><path class="cls-7" d="M30.29,79.05c2.26-4.37-3.08-4.47-5.59-7.69a7.65,7.65,0,0,0,1.59,3.46c-2.88-1.6-5.15-3.06-6.83-5.88a41.14,41.14,0,0,0,1.24,4c-2.41-2.2-7.72-6.28-6.29-9.82a24.75,24.75,0,0,1-3.94-6c-1-.19-1.46.71-2.55.12-1.84-1-2.86-4.48-3.49-6.55A11.79,11.79,0,0,1,4,46.1a4.48,4.48,0,0,1,1.79-3.35,3.17,3.17,0,0,1,2.35-.4c0-.4.08-.8.13-1.21.12-1,.29-2,.5-3a2.17,2.17,0,0,1-1.57-2.29c0-2.76.51-5.49.74-8.24A5.65,5.65,0,0,1,10,26.74c.26-.65.55-1.29.85-1.94a17.11,17.11,0,0,1-1.44-1.1,28.83,28.83,0,0,1-7.8-10.87c-1.58-3.75-2-7-1.31-8l.12-.14c1.46-1.46,3.63,0,6.68,2.09s7.18,4.88,12,5.66a62.86,62.86,0,0,1,7.13-6.93c1.4-1.16,2.82-2.22,4.24-3.18A43.9,43.9,0,0,1,34.39,0a42.63,42.63,0,0,1,3.9,2.36c1.42,1,2.84,2,4.24,3.18a62.86,62.86,0,0,1,7.13,6.93c4.83-.78,8.92-3.56,12-5.66s5.22-3.55,6.67-2.09a.86.86,0,0,1,.13.14c.69.95.27,4.22-1.31,8a29.05,29.05,0,0,1-7.8,10.87,17.26,17.26,0,0,1-1.45,1.1c.31.65.59,1.29.86,1.94a6.49,6.49,0,0,1,1.87.7l.24.17c.26,3.11.66,6.22.79,9.34,0,.84-.89,1.14-1.62,1.19.21,1,.38,2,.5,3,.05.41.09.81.13,1.21a3.18,3.18,0,0,1,2.35.4,4.44,4.44,0,0,1,1.78,3.35,11.43,11.43,0,0,1-.46,4.63c-.9,3-2.95,5.83-6,6.43a24.75,24.75,0,0,1-3.94,6c1.8,2.66-4.51,8.19-6.29,9.82-.11-.68-.21-1.37-.38-2a18.17,18.17,0,0,1-5.21,3.89c0-.49,0-1.28,0-1.77C40.85,76.25,34.41,78.8,30.29,79.05Z"/><path class="cls-8" d="M38.72,41.71H51.64c3.41,0,4.86.5,4.23,4.27l-.54,3.08c-.44,2.64-2.77,2.72-4,2.76H42c-3.47,0-3.54-1.3-3.75-2.86l-.84-6.09s0-.06,0-.11a.92.92,0,0,1,.34-.67,1.58,1.58,0,0,1,.86-.38h.17Z"/><path class="cls-8" d="M58.45,22.79c-.36.3-.73.58-1.11.85a55,55,0,0,0-6.75-10.08c4.83-1,8.84-3.68,11.89-5.76C65,6.12,66.71,4.92,67.34,5.55c.48.66,0,3.45-1.44,6.84A27.72,27.72,0,0,1,58.45,22.79Z"/><path class="cls-8" d="M54.4,29a3.08,3.08,0,0,0-.68.07,2.47,2.47,0,0,1,0,4.87,3.08,3.08,0,0,0,.68.07,2.52,2.52,0,1,0,0-5Z"/><path class="cls-8" d="M46.26,27.82a3.33,3.33,0,0,0-.78.09,2.86,2.86,0,0,1,0,5.64,3.33,3.33,0,0,0,.78.09,2.92,2.92,0,1,0,0-5.82Z"/><path class="cls-8" d="M36.17,27a4.19,4.19,0,0,0-1,.11,3.45,3.45,0,0,1,0,6.81,4.19,4.19,0,0,0,1,.11A3.7,3.7,0,0,0,40,30.47,3.7,3.7,0,0,0,36.17,27Z"/><path class="cls-9" d="M57.91,43.52c-.33,0-.47.35-.49.52q-.57,3.32-1.12,6.63a2.84,2.84,0,0,1-1.54,2.13,3.07,3.07,0,0,1-.56.19,2.91,2.91,0,0,1-.6.06H40.38a2,2,0,0,1,.81,2.54c1.76.68,10.34,3.75,12.2,6.71a23.37,23.37,0,0,0,4.06-6.57,27,27,0,0,0,2-10.16c0-.74,0-1.39,0-2Z"/><path class="cls-9" d="M33.41,41.8l3-.43.15-.16a3,3,0,0,1,1.64-.72h0l.34,0h16.3a2.73,2.73,0,0,1,.41,0,3.06,3.06,0,0,1,1.59.72,2.27,2.27,0,0,1,.26.28h2.09l0-.22c-.13-1.1-.33-2.23-.58-3.37a191.28,191.28,0,0,0-35.89-1.68c.09.78-.33,3.23.6,4.06.75.38,7.42-.11,8.24.38C32.15,41,32.76,41.39,33.41,41.8Z"/><path class="cls-9" d="M31,53.46c-1.57-.48-2.38.91-1.49,1.95a22.22,22.22,0,0,1,9.87,0c1.37-.65,0-2.78-1.49-1.95C35.61,49.48,32.81,49.48,31,53.46Z"/><path class="cls-10" d="M22.47,59.06c1.84,1.69-1.55,6.61,9,12.11-.17-2.27.07-3.29.9-4.27.16,3.15,1.89,4.19,3.17,8.3A14.9,14.9,0,0,0,39,65.85c.88.67,2.17,3.55,1.41,6.54,2.89-1.58,3.36-3.49,3.75-5.88.78,1.5-.32,5.28-.44,6.11a8.94,8.94,0,0,0,4-4.72,15.18,15.18,0,0,1,1.1,2.64,19.8,19.8,0,0,0,3.64-5.35c.61-1,.21-2-.74-2.78a21.7,21.7,0,0,0-7.15-4.11A25.6,25.6,0,0,0,27.94,57,28.43,28.43,0,0,0,22.47,59.06Z"/><path class="cls-8" d="M30.21,41.71H17.3c-3.41,0-4.86.5-4.23,4.27l.53,3.08c.45,2.64,2.77,2.72,4,2.76H27c3.48,0,3.55-1.3,3.75-2.86l.85-6.09v-.11a.94.94,0,0,0-.33-.67,1.64,1.64,0,0,0-.87-.38h-.17Z"/><path class="cls-8" d="M11.35,22a46.73,46.73,0,0,1,2.88-4.87C10.92,16.26,5.37,12.54,2,7.48a25.32,25.32,0,0,0,1.27,3.77A25.08,25.08,0,0,0,11.35,22Z"/><path class="cls-11" d="M34.39,1.44c-8,5.79-11.1,18.44-11.18,23.46,14.22-1.28,19.5-.72,33.95,1.47A55.38,55.38,0,0,0,41.62,6.45c-1.35-1.12-2.74-2.16-4.13-3.1C36.46,2.65,35.42,2,34.39,1.44Z"/><path class="cls-7" d="M46.57,43.51a3,3,0,1,0,0,5.92,3.4,3.4,0,0,0,1.4-.29,1.16,1.16,0,0,1-.76-1.06,1.22,1.22,0,0,1,1.27-1.15,1.31,1.31,0,0,1,1.12.61,2.73,2.73,0,0,0,.22-1.07A3.12,3.12,0,0,0,46.57,43.51Z"/><path class="cls-7" d="M22.47,43.51a3,3,0,1,1,0,5.92,3.4,3.4,0,0,1-1.4-.29,1.16,1.16,0,0,0,.75-1.06,1.21,1.21,0,0,0-1.26-1.15,1.29,1.29,0,0,0-1.12.61,2.73,2.73,0,0,1-.22-1.07A3.12,3.12,0,0,1,22.47,43.51Z"/><path class="cls-7" d="M58.49,21.14q-.51.42-1.05.81a46.73,46.73,0,0,0-2.88-4.87c3.31-.82,8.85-4.54,12.27-9.6a23.2,23.2,0,0,1-1.27,3.77A26.22,26.22,0,0,1,58.49,21.14Z"/><path d="M29.9,62.87,40.36,63c3.48,0,1.74,1.06,1.34,2h0l-11.49-.17-.76-.44C28.71,64,26,60.4,29.9,62.87Z"/></g></svg>
